<mxfile host="app.diagrams.net" agent="Mozilla/5.0 (Windows NT 10.0; Win64; x64) AppleWebKit/537.36 (KHTML, like Gecko) Chrome/139.0.0.0 Safari/537.36" version="28.1.1">
  <diagram name="Página-1" id="F08g4S8QX43q0Huv5xN_">
    <mxGraphModel dx="1426" dy="777" grid="1" gridSize="10" guides="1" tooltips="1" connect="1" arrows="1" fold="1" page="1" pageScale="1" pageWidth="827" pageHeight="1169" math="0" shadow="0">
      <root>
        <mxCell id="0" />
        <mxCell id="1" parent="0" />
        <mxCell id="-ekGsj5JHg_tpQNRDKtk-1" value="Pozo" style="rounded=0;whiteSpace=wrap;html=1;" vertex="1" parent="1">
          <mxGeometry x="100" y="90" width="120" height="60" as="geometry" />
        </mxCell>
        <mxCell id="-ekGsj5JHg_tpQNRDKtk-2" value="" style="endArrow=none;html=1;rounded=0;entryX=0.5;entryY=1;entryDx=0;entryDy=0;exitX=0.5;exitY=0;exitDx=0;exitDy=0;" edge="1" parent="1" source="-ekGsj5JHg_tpQNRDKtk-3" target="-ekGsj5JHg_tpQNRDKtk-1">
          <mxGeometry width="50" height="50" relative="1" as="geometry">
            <mxPoint x="160" y="240" as="sourcePoint" />
            <mxPoint x="300" y="240" as="targetPoint" />
          </mxGeometry>
        </mxCell>
        <mxCell id="-ekGsj5JHg_tpQNRDKtk-3" value="realiza" style="rhombus;whiteSpace=wrap;html=1;" vertex="1" parent="1">
          <mxGeometry x="160" y="210" width="80" height="80" as="geometry" />
        </mxCell>
        <mxCell id="-ekGsj5JHg_tpQNRDKtk-4" value="" style="endArrow=none;html=1;rounded=0;exitX=0.5;exitY=1;exitDx=0;exitDy=0;entryX=0.817;entryY=0.017;entryDx=0;entryDy=0;entryPerimeter=0;" edge="1" parent="1" source="-ekGsj5JHg_tpQNRDKtk-3" target="-ekGsj5JHg_tpQNRDKtk-5">
          <mxGeometry width="50" height="50" relative="1" as="geometry">
            <mxPoint x="250" y="290" as="sourcePoint" />
            <mxPoint x="100" y="290" as="targetPoint" />
          </mxGeometry>
        </mxCell>
        <mxCell id="-ekGsj5JHg_tpQNRDKtk-5" value="Monitoreo" style="rounded=0;whiteSpace=wrap;html=1;" vertex="1" parent="1">
          <mxGeometry x="100" y="370" width="120" height="60" as="geometry" />
        </mxCell>
        <mxCell id="-ekGsj5JHg_tpQNRDKtk-6" value="" style="endArrow=none;html=1;rounded=0;exitX=1;exitY=0.5;exitDx=0;exitDy=0;" edge="1" parent="1" source="-ekGsj5JHg_tpQNRDKtk-5" target="-ekGsj5JHg_tpQNRDKtk-7">
          <mxGeometry width="50" height="50" relative="1" as="geometry">
            <mxPoint x="262" y="250" as="sourcePoint" />
            <mxPoint x="370" y="270" as="targetPoint" />
          </mxGeometry>
        </mxCell>
        <mxCell id="-ekGsj5JHg_tpQNRDKtk-7" value="mide" style="rhombus;whiteSpace=wrap;html=1;" vertex="1" parent="1">
          <mxGeometry x="290" y="360" width="80" height="80" as="geometry" />
        </mxCell>
        <mxCell id="-ekGsj5JHg_tpQNRDKtk-8" value="" style="endArrow=none;html=1;rounded=0;entryX=1;entryY=0.5;entryDx=0;entryDy=0;exitX=0;exitY=0.5;exitDx=0;exitDy=0;" edge="1" parent="1" source="-ekGsj5JHg_tpQNRDKtk-9" target="-ekGsj5JHg_tpQNRDKtk-7">
          <mxGeometry width="50" height="50" relative="1" as="geometry">
            <mxPoint x="320" y="320" as="sourcePoint" />
            <mxPoint x="370" y="270" as="targetPoint" />
          </mxGeometry>
        </mxCell>
        <mxCell id="-ekGsj5JHg_tpQNRDKtk-9" value="Parámetro" style="rounded=0;whiteSpace=wrap;html=1;" vertex="1" parent="1">
          <mxGeometry x="440" y="370" width="120" height="60" as="geometry" />
        </mxCell>
        <mxCell id="-ekGsj5JHg_tpQNRDKtk-10" value="" style="rounded=0;whiteSpace=wrap;html=1;fillColor=none;" vertex="1" parent="1">
          <mxGeometry x="60" y="310" width="540" height="180" as="geometry" />
        </mxCell>
        <mxCell id="-ekGsj5JHg_tpQNRDKtk-11" value="" style="endArrow=none;html=1;rounded=0;exitX=0.185;exitY=1.025;exitDx=0;exitDy=0;exitPerimeter=0;" edge="1" parent="1" source="-ekGsj5JHg_tpQNRDKtk-10" target="-ekGsj5JHg_tpQNRDKtk-12">
          <mxGeometry width="50" height="50" relative="1" as="geometry">
            <mxPoint x="290" y="460" as="sourcePoint" />
            <mxPoint x="324" y="600" as="targetPoint" />
          </mxGeometry>
        </mxCell>
        <mxCell id="-ekGsj5JHg_tpQNRDKtk-12" value="obtiene" style="rhombus;whiteSpace=wrap;html=1;" vertex="1" parent="1">
          <mxGeometry x="120" y="560" width="80" height="80" as="geometry" />
        </mxCell>
        <mxCell id="-ekGsj5JHg_tpQNRDKtk-13" value="" style="endArrow=none;html=1;rounded=0;" edge="1" parent="1" source="-ekGsj5JHg_tpQNRDKtk-12" target="-ekGsj5JHg_tpQNRDKtk-14">
          <mxGeometry width="50" height="50" relative="1" as="geometry">
            <mxPoint x="290" y="460" as="sourcePoint" />
            <mxPoint x="340" y="410" as="targetPoint" />
          </mxGeometry>
        </mxCell>
        <mxCell id="-ekGsj5JHg_tpQNRDKtk-14" value="Resultado" style="rounded=0;whiteSpace=wrap;html=1;" vertex="1" parent="1">
          <mxGeometry x="100" y="690" width="120" height="60" as="geometry" />
        </mxCell>
        <mxCell id="-ekGsj5JHg_tpQNRDKtk-15" value="" style="endArrow=none;html=1;rounded=0;exitX=1;exitY=0.5;exitDx=0;exitDy=0;" edge="1" parent="1" source="-ekGsj5JHg_tpQNRDKtk-14" target="-ekGsj5JHg_tpQNRDKtk-16">
          <mxGeometry width="50" height="50" relative="1" as="geometry">
            <mxPoint x="310" y="690" as="sourcePoint" />
            <mxPoint x="290" y="720" as="targetPoint" />
          </mxGeometry>
        </mxCell>
        <mxCell id="-ekGsj5JHg_tpQNRDKtk-16" value="utiliza" style="rhombus;whiteSpace=wrap;html=1;" vertex="1" parent="1">
          <mxGeometry x="270" y="680" width="80" height="80" as="geometry" />
        </mxCell>
        <mxCell id="-ekGsj5JHg_tpQNRDKtk-17" value="" style="endArrow=none;html=1;rounded=0;exitX=1;exitY=0.5;exitDx=0;exitDy=0;" edge="1" parent="1" source="-ekGsj5JHg_tpQNRDKtk-16" target="-ekGsj5JHg_tpQNRDKtk-18">
          <mxGeometry width="50" height="50" relative="1" as="geometry">
            <mxPoint x="310" y="690" as="sourcePoint" />
            <mxPoint x="360" y="640" as="targetPoint" />
          </mxGeometry>
        </mxCell>
        <mxCell id="-ekGsj5JHg_tpQNRDKtk-18" value="Instrumento" style="rounded=0;whiteSpace=wrap;html=1;" vertex="1" parent="1">
          <mxGeometry x="410" y="690" width="120" height="60" as="geometry" />
        </mxCell>
        <mxCell id="-ekGsj5JHg_tpQNRDKtk-19" value="" style="endArrow=none;html=1;rounded=0;entryX=0.5;entryY=1;entryDx=0;entryDy=0;exitX=0.5;exitY=0;exitDx=0;exitDy=0;" edge="1" parent="1" source="-ekGsj5JHg_tpQNRDKtk-20" target="-ekGsj5JHg_tpQNRDKtk-18">
          <mxGeometry width="50" height="50" relative="1" as="geometry">
            <mxPoint x="350" y="820" as="sourcePoint" />
            <mxPoint x="510" y="750" as="targetPoint" />
          </mxGeometry>
        </mxCell>
        <mxCell id="-ekGsj5JHg_tpQNRDKtk-20" value="Analógico" style="rounded=0;whiteSpace=wrap;html=1;" vertex="1" parent="1">
          <mxGeometry x="270" y="840" width="120" height="60" as="geometry" />
        </mxCell>
        <mxCell id="-ekGsj5JHg_tpQNRDKtk-21" value="" style="endArrow=none;html=1;rounded=0;exitX=0.5;exitY=1;exitDx=0;exitDy=0;" edge="1" parent="1" source="-ekGsj5JHg_tpQNRDKtk-18" target="-ekGsj5JHg_tpQNRDKtk-22">
          <mxGeometry width="50" height="50" relative="1" as="geometry">
            <mxPoint x="460" y="800" as="sourcePoint" />
            <mxPoint x="470" y="750" as="targetPoint" />
          </mxGeometry>
        </mxCell>
        <mxCell id="-ekGsj5JHg_tpQNRDKtk-22" value="Digital" style="rounded=0;whiteSpace=wrap;html=1;" vertex="1" parent="1">
          <mxGeometry x="570" y="840" width="120" height="60" as="geometry" />
        </mxCell>
        <mxCell id="-ekGsj5JHg_tpQNRDKtk-23" value="(G)" style="text;html=1;align=center;verticalAlign=middle;resizable=0;points=[];autosize=1;strokeColor=none;fillColor=none;fontSize=17;" vertex="1" parent="1">
          <mxGeometry x="445" y="778" width="50" height="30" as="geometry" />
        </mxCell>
        <mxCell id="-ekGsj5JHg_tpQNRDKtk-24" value="" style="endArrow=diamondThin;endFill=0;endSize=24;html=1;rounded=0;exitX=0.058;exitY=-0.017;exitDx=0;exitDy=0;exitPerimeter=0;" edge="1" parent="1" source="-ekGsj5JHg_tpQNRDKtk-1">
          <mxGeometry width="160" relative="1" as="geometry">
            <mxPoint x="230" y="250" as="sourcePoint" />
            <mxPoint x="107" y="60" as="targetPoint" />
          </mxGeometry>
        </mxCell>
        <mxCell id="-ekGsj5JHg_tpQNRDKtk-25" value="latitud" style="text;html=1;align=center;verticalAlign=middle;resizable=0;points=[];autosize=1;strokeColor=none;fillColor=none;" vertex="1" parent="1">
          <mxGeometry x="70" y="30" width="60" height="30" as="geometry" />
        </mxCell>
        <mxCell id="-ekGsj5JHg_tpQNRDKtk-26" value="" style="endArrow=diamondThin;endFill=0;endSize=24;html=1;rounded=0;exitX=0.375;exitY=-0.017;exitDx=0;exitDy=0;exitPerimeter=0;" edge="1" parent="1" source="-ekGsj5JHg_tpQNRDKtk-1">
          <mxGeometry width="160" relative="1" as="geometry">
            <mxPoint x="230" y="250" as="sourcePoint" />
            <mxPoint x="145" y="60" as="targetPoint" />
          </mxGeometry>
        </mxCell>
        <mxCell id="-ekGsj5JHg_tpQNRDKtk-27" value="longitud" style="text;html=1;align=center;verticalAlign=middle;resizable=0;points=[];autosize=1;strokeColor=none;fillColor=none;" vertex="1" parent="1">
          <mxGeometry x="110" y="30" width="70" height="30" as="geometry" />
        </mxCell>
        <mxCell id="-ekGsj5JHg_tpQNRDKtk-28" value="" style="endArrow=diamondThin;endFill=0;endSize=24;html=1;rounded=0;exitX=0.858;exitY=0;exitDx=0;exitDy=0;exitPerimeter=0;" edge="1" parent="1" source="-ekGsj5JHg_tpQNRDKtk-1">
          <mxGeometry width="160" relative="1" as="geometry">
            <mxPoint x="230" y="250" as="sourcePoint" />
            <mxPoint x="203" y="60" as="targetPoint" />
          </mxGeometry>
        </mxCell>
        <mxCell id="-ekGsj5JHg_tpQNRDKtk-29" value="nombre" style="text;html=1;align=center;verticalAlign=middle;resizable=0;points=[];autosize=1;strokeColor=none;fillColor=none;" vertex="1" parent="1">
          <mxGeometry x="170" y="30" width="60" height="30" as="geometry" />
        </mxCell>
        <mxCell id="-ekGsj5JHg_tpQNRDKtk-30" value="" style="endArrow=diamondThin;endFill=0;endSize=24;html=1;rounded=0;exitX=1;exitY=0.25;exitDx=0;exitDy=0;" edge="1" parent="1" source="-ekGsj5JHg_tpQNRDKtk-1">
          <mxGeometry width="160" relative="1" as="geometry">
            <mxPoint x="230" y="250" as="sourcePoint" />
            <mxPoint x="250" y="105" as="targetPoint" />
          </mxGeometry>
        </mxCell>
        <mxCell id="-ekGsj5JHg_tpQNRDKtk-31" value="fecha_produccion" style="text;html=1;align=center;verticalAlign=middle;resizable=0;points=[];autosize=1;strokeColor=none;fillColor=none;" vertex="1" parent="1">
          <mxGeometry x="240" y="90" width="120" height="30" as="geometry" />
        </mxCell>
        <mxCell id="-ekGsj5JHg_tpQNRDKtk-32" value="" style="endArrow=diamondThin;endFill=1;endSize=24;html=1;rounded=0;exitX=1;exitY=0.75;exitDx=0;exitDy=0;" edge="1" parent="1" source="-ekGsj5JHg_tpQNRDKtk-1">
          <mxGeometry width="160" relative="1" as="geometry">
            <mxPoint x="230" y="250" as="sourcePoint" />
            <mxPoint x="250" y="135" as="targetPoint" />
          </mxGeometry>
        </mxCell>
        <mxCell id="-ekGsj5JHg_tpQNRDKtk-33" value="id_pozo" style="text;html=1;align=center;verticalAlign=middle;resizable=0;points=[];autosize=1;strokeColor=none;fillColor=none;" vertex="1" parent="1">
          <mxGeometry x="240" y="120" width="70" height="30" as="geometry" />
        </mxCell>
        <mxCell id="-ekGsj5JHg_tpQNRDKtk-34" value="" style="endArrow=diamondThin;endFill=0;endSize=24;html=1;rounded=0;exitX=0.083;exitY=0.017;exitDx=0;exitDy=0;exitPerimeter=0;" edge="1" parent="1" source="-ekGsj5JHg_tpQNRDKtk-5">
          <mxGeometry width="160" relative="1" as="geometry">
            <mxPoint x="60" y="470" as="sourcePoint" />
            <mxPoint x="110" y="340" as="targetPoint" />
          </mxGeometry>
        </mxCell>
        <mxCell id="-ekGsj5JHg_tpQNRDKtk-35" value="fecha" style="text;html=1;align=center;verticalAlign=middle;resizable=0;points=[];autosize=1;strokeColor=none;fillColor=none;" vertex="1" parent="1">
          <mxGeometry x="90" y="320" width="50" height="30" as="geometry" />
        </mxCell>
        <mxCell id="-ekGsj5JHg_tpQNRDKtk-36" value="" style="endArrow=diamondThin;endFill=0;endSize=24;html=1;rounded=0;exitX=0.5;exitY=0;exitDx=0;exitDy=0;" edge="1" parent="1" source="-ekGsj5JHg_tpQNRDKtk-5">
          <mxGeometry width="160" relative="1" as="geometry">
            <mxPoint x="260" y="400" as="sourcePoint" />
            <mxPoint x="160" y="340" as="targetPoint" />
          </mxGeometry>
        </mxCell>
        <mxCell id="-ekGsj5JHg_tpQNRDKtk-37" value="metodo" style="text;html=1;align=center;verticalAlign=middle;resizable=0;points=[];autosize=1;strokeColor=none;fillColor=none;" vertex="1" parent="1">
          <mxGeometry x="130" y="320" width="60" height="30" as="geometry" />
        </mxCell>
        <mxCell id="-ekGsj5JHg_tpQNRDKtk-38" value="" style="endArrow=diamondThin;endFill=1;endSize=24;html=1;rounded=0;exitX=0.142;exitY=1;exitDx=0;exitDy=0;exitPerimeter=0;" edge="1" parent="1" source="-ekGsj5JHg_tpQNRDKtk-5">
          <mxGeometry width="160" relative="1" as="geometry">
            <mxPoint x="230" y="430" as="sourcePoint" />
            <mxPoint x="117" y="460" as="targetPoint" />
          </mxGeometry>
        </mxCell>
        <mxCell id="-ekGsj5JHg_tpQNRDKtk-39" value="id_monitoreo" style="text;html=1;align=center;verticalAlign=middle;resizable=0;points=[];autosize=1;strokeColor=none;fillColor=none;" vertex="1" parent="1">
          <mxGeometry x="80" y="460" width="90" height="30" as="geometry" />
        </mxCell>
        <mxCell id="-ekGsj5JHg_tpQNRDKtk-40" value="" style="endArrow=diamondThin;endFill=0;endSize=24;html=1;rounded=0;exitX=0.25;exitY=0;exitDx=0;exitDy=0;" edge="1" parent="1" source="-ekGsj5JHg_tpQNRDKtk-9">
          <mxGeometry width="160" relative="1" as="geometry">
            <mxPoint x="480" y="450" as="sourcePoint" />
            <mxPoint x="470" y="340" as="targetPoint" />
          </mxGeometry>
        </mxCell>
        <mxCell id="-ekGsj5JHg_tpQNRDKtk-41" value="nombre" style="text;html=1;align=center;verticalAlign=middle;resizable=0;points=[];autosize=1;strokeColor=none;fillColor=none;" vertex="1" parent="1">
          <mxGeometry x="440" y="320" width="60" height="30" as="geometry" />
        </mxCell>
        <mxCell id="-ekGsj5JHg_tpQNRDKtk-42" value="" style="endArrow=diamondThin;endFill=1;endSize=24;html=1;rounded=0;" edge="1" parent="1">
          <mxGeometry width="160" relative="1" as="geometry">
            <mxPoint x="539" y="370" as="sourcePoint" />
            <mxPoint x="539" y="340" as="targetPoint" />
          </mxGeometry>
        </mxCell>
        <mxCell id="-ekGsj5JHg_tpQNRDKtk-43" value="valor_referencia" style="text;html=1;align=center;verticalAlign=middle;resizable=0;points=[];autosize=1;strokeColor=none;fillColor=none;" vertex="1" parent="1">
          <mxGeometry x="490" y="320" width="110" height="30" as="geometry" />
        </mxCell>
        <mxCell id="-ekGsj5JHg_tpQNRDKtk-44" value="" style="endArrow=diamondThin;endFill=0;endSize=24;html=1;rounded=0;exitX=0;exitY=0.25;exitDx=0;exitDy=0;" edge="1" parent="1" source="-ekGsj5JHg_tpQNRDKtk-14">
          <mxGeometry width="160" relative="1" as="geometry">
            <mxPoint x="200" y="710" as="sourcePoint" />
            <mxPoint x="70" y="705" as="targetPoint" />
          </mxGeometry>
        </mxCell>
        <mxCell id="-ekGsj5JHg_tpQNRDKtk-45" value="valor" style="text;html=1;align=center;verticalAlign=middle;resizable=0;points=[];autosize=1;strokeColor=none;fillColor=none;" vertex="1" parent="1">
          <mxGeometry x="30" y="690" width="50" height="30" as="geometry" />
        </mxCell>
        <mxCell id="-ekGsj5JHg_tpQNRDKtk-46" value="" style="endArrow=diamondThin;endFill=1;endSize=24;html=1;rounded=0;exitX=0.2;exitY=1.05;exitDx=0;exitDy=0;exitPerimeter=0;" edge="1" parent="1" source="-ekGsj5JHg_tpQNRDKtk-14">
          <mxGeometry width="160" relative="1" as="geometry">
            <mxPoint x="200" y="710" as="sourcePoint" />
            <mxPoint x="124" y="790" as="targetPoint" />
          </mxGeometry>
        </mxCell>
        <mxCell id="-ekGsj5JHg_tpQNRDKtk-47" value="id_resultado" style="text;html=1;align=center;verticalAlign=middle;resizable=0;points=[];autosize=1;strokeColor=none;fillColor=none;" vertex="1" parent="1">
          <mxGeometry x="80" y="790" width="90" height="30" as="geometry" />
        </mxCell>
        <mxCell id="-ekGsj5JHg_tpQNRDKtk-48" value="" style="endArrow=diamondThin;endFill=1;endSize=24;html=1;rounded=0;exitX=1;exitY=0.25;exitDx=0;exitDy=0;" edge="1" parent="1" source="-ekGsj5JHg_tpQNRDKtk-18">
          <mxGeometry width="160" relative="1" as="geometry">
            <mxPoint x="460" y="740" as="sourcePoint" />
            <mxPoint x="560" y="705" as="targetPoint" />
          </mxGeometry>
        </mxCell>
        <mxCell id="-ekGsj5JHg_tpQNRDKtk-49" value="numero_serie" style="text;html=1;align=center;verticalAlign=middle;resizable=0;points=[];autosize=1;strokeColor=none;fillColor=none;" vertex="1" parent="1">
          <mxGeometry x="550" y="690" width="100" height="30" as="geometry" />
        </mxCell>
        <mxCell id="-ekGsj5JHg_tpQNRDKtk-50" value="" style="endArrow=diamondThin;endFill=0;endSize=24;html=1;rounded=0;exitX=0.25;exitY=1;exitDx=0;exitDy=0;" edge="1" parent="1" source="-ekGsj5JHg_tpQNRDKtk-20">
          <mxGeometry width="160" relative="1" as="geometry">
            <mxPoint x="460" y="740" as="sourcePoint" />
            <mxPoint x="300" y="930" as="targetPoint" />
          </mxGeometry>
        </mxCell>
        <mxCell id="-ekGsj5JHg_tpQNRDKtk-51" value="fecha_calibracion" style="text;html=1;align=center;verticalAlign=middle;resizable=0;points=[];autosize=1;strokeColor=none;fillColor=none;" vertex="1" parent="1">
          <mxGeometry x="240" y="930" width="120" height="30" as="geometry" />
        </mxCell>
        <mxCell id="-ekGsj5JHg_tpQNRDKtk-52" value="" style="endArrow=diamondThin;endFill=0;endSize=24;html=1;rounded=0;exitX=0.192;exitY=1;exitDx=0;exitDy=0;exitPerimeter=0;" edge="1" parent="1" source="-ekGsj5JHg_tpQNRDKtk-22">
          <mxGeometry width="160" relative="1" as="geometry">
            <mxPoint x="580" y="780" as="sourcePoint" />
            <mxPoint x="593" y="930" as="targetPoint" />
          </mxGeometry>
        </mxCell>
        <mxCell id="-ekGsj5JHg_tpQNRDKtk-53" value="marca" style="text;html=1;align=center;verticalAlign=middle;resizable=0;points=[];autosize=1;strokeColor=none;fillColor=none;" vertex="1" parent="1">
          <mxGeometry x="560" y="928" width="60" height="30" as="geometry" />
        </mxCell>
        <mxCell id="-ekGsj5JHg_tpQNRDKtk-54" value="" style="endArrow=diamondThin;endFill=0;endSize=24;html=1;rounded=0;exitX=0.75;exitY=1;exitDx=0;exitDy=0;" edge="1" parent="1" source="-ekGsj5JHg_tpQNRDKtk-22">
          <mxGeometry width="160" relative="1" as="geometry">
            <mxPoint x="580" y="780" as="sourcePoint" />
            <mxPoint x="660" y="930" as="targetPoint" />
          </mxGeometry>
        </mxCell>
        <mxCell id="-ekGsj5JHg_tpQNRDKtk-55" value="modelo" style="text;html=1;align=center;verticalAlign=middle;resizable=0;points=[];autosize=1;strokeColor=none;fillColor=none;" vertex="1" parent="1">
          <mxGeometry x="630" y="930" width="60" height="30" as="geometry" />
        </mxCell>
        <mxCell id="-ekGsj5JHg_tpQNRDKtk-56" value="(1,1)" style="text;html=1;align=center;verticalAlign=middle;resizable=0;points=[];autosize=1;strokeColor=none;fillColor=none;" vertex="1" parent="1">
          <mxGeometry x="180" y="158" width="50" height="30" as="geometry" />
        </mxCell>
        <mxCell id="-ekGsj5JHg_tpQNRDKtk-57" value="(0,n)" style="text;html=1;align=center;verticalAlign=middle;resizable=0;points=[];autosize=1;strokeColor=none;fillColor=none;" vertex="1" parent="1">
          <mxGeometry x="260" y="240" width="50" height="30" as="geometry" />
        </mxCell>
        <mxCell id="-ekGsj5JHg_tpQNRDKtk-58" value="(1,n)" style="text;html=1;align=center;verticalAlign=middle;resizable=0;points=[];autosize=1;strokeColor=none;fillColor=none;" vertex="1" parent="1">
          <mxGeometry x="370" y="370" width="50" height="30" as="geometry" />
        </mxCell>
        <mxCell id="-ekGsj5JHg_tpQNRDKtk-59" value="(0,n)" style="text;html=1;align=center;verticalAlign=middle;resizable=0;points=[];autosize=1;strokeColor=none;fillColor=none;" vertex="1" parent="1">
          <mxGeometry x="230" y="370" width="50" height="30" as="geometry" />
        </mxCell>
        <mxCell id="-ekGsj5JHg_tpQNRDKtk-60" value="(1,1)" style="text;html=1;align=center;verticalAlign=middle;resizable=0;points=[];autosize=1;strokeColor=none;fillColor=none;" vertex="1" parent="1">
          <mxGeometry x="155" y="650" width="50" height="30" as="geometry" />
        </mxCell>
        <mxCell id="-ekGsj5JHg_tpQNRDKtk-61" value="(1,1)" style="text;html=1;align=center;verticalAlign=middle;resizable=0;points=[];autosize=1;strokeColor=none;fillColor=none;" vertex="1" parent="1">
          <mxGeometry x="155" y="520" width="50" height="30" as="geometry" />
        </mxCell>
        <mxCell id="-ekGsj5JHg_tpQNRDKtk-62" value="(1,1)" style="text;html=1;align=center;verticalAlign=middle;resizable=0;points=[];autosize=1;strokeColor=none;fillColor=none;" vertex="1" parent="1">
          <mxGeometry x="350" y="690" width="50" height="30" as="geometry" />
        </mxCell>
        <mxCell id="-ekGsj5JHg_tpQNRDKtk-63" value="(0,n)" style="text;html=1;align=center;verticalAlign=middle;resizable=0;points=[];autosize=1;strokeColor=none;fillColor=none;" vertex="1" parent="1">
          <mxGeometry x="220" y="690" width="50" height="30" as="geometry" />
        </mxCell>
      </root>
    </mxGraphModel>
  </diagram>
</mxfile>
